<?xml version="1.0" standalone="no"?>
<!DOCTYPE svg PUBLIC "-//W3C//DTD SVG 20010904//EN"
 "http://www.w3.org/TR/2001/REC-SVG-20010904/DTD/svg10.dtd">
<svg version="1.0" xmlns="http://www.w3.org/2000/svg"
 width="360.000000pt" height="140.000000pt" viewBox="0 0 360.000000 140.000000"
 preserveAspectRatio="xMidYMid meet">

<g transform="translate(0.000000,140.000000) scale(0.100000,-0.100000)"
fill="#000000" stroke="none">
<path d="M470 1168 l0 -143 -88 -1 c-72 0 -97 -4 -142 -26 -70 -33 -116 -79
-149 -148 -22 -47 -26 -68 -25 -145 1 -103 14 -143 68 -203 48 -53 106 -79
203 -91 74 -9 233 -1 298 15 l25 6 0 439 0 439 -95 0 -95 0 0 -142z m-14 -298
c11 0 14 -30 14 -154 l0 -153 -30 -6 c-35 -8 -84 0 -122 20 -51 25 -77 106
-58 182 18 77 84 126 154 116 16 -3 35 -5 42 -5z"/>
<path d="M778 1215 l-3 -95 93 0 92 0 0 95 0 95 -89 0 -90 0 -3 -95z"/>
<path d="M1215 1016 c-33 -8 -77 -21 -98 -29 l-37 -16 0 -70 0 -70 72 25 c78
26 185 33 206 12 7 -7 12 -26 12 -43 l0 -31 -80 -12 c-150 -22 -232 -77 -245
-167 -15 -97 17 -162 93 -192 50 -19 200 -23 337 -8 l66 7 -3 253 c-3 238 -4
255 -24 282 -11 15 -37 36 -57 46 -49 24 -165 30 -242 13z m165 -410 l0 -65
-54 -6 c-71 -9 -110 8 -114 51 -4 37 8 47 73 67 92 28 95 27 95 -47z"/>
<path d="M1800 1019 c-36 -5 -87 -15 -115 -22 l-50 -13 1 -285 0 -284 92 -3
92 -3 0 225 c0 130 4 227 9 231 6 3 37 6 70 8 51 2 64 -1 83 -21 22 -22 23
-29 26 -232 l3 -210 90 0 89 0 0 233 c0 206 -3 237 -19 274 -44 95 -167 129
-371 102z"/>
<path d="M2580 1020 c-164 -26 -270 -103 -310 -224 -16 -50 -16 -159 1 -217
17 -58 98 -140 155 -157 50 -14 146 -16 193 -2 l34 9 -5 -44 c-11 -92 -60
-128 -178 -127 -46 0 -99 8 -137 20 l-63 20 0 -83 0 -83 33 -11 c146 -52 347
-23 435 62 79 75 92 140 92 447 l0 240 23 0 c18 0 28 12 50 62 15 34 25 64 22
66 -19 19 -264 35 -345 22z m70 -294 c0 -172 3 -166 -73 -166 -90 0 -133 59
-125 171 6 80 45 123 128 140 75 15 70 26 70 -145z"/>
<path d="M3123 1016 c-128 -40 -203 -153 -203 -306 0 -129 48 -224 136 -272
152 -82 352 -41 430 90 38 63 59 160 49 234 -9 78 -58 173 -108 209 -76 55
-208 75 -304 45z m156 -151 c41 -21 65 -78 64 -155 0 -105 -40 -160 -116 -160
-21 0 -48 7 -62 16 -47 31 -69 139 -45 226 21 73 94 107 159 73z"/>
<path d="M774 737 c-1 -223 -5 -284 -18 -331 -19 -63 -65 -121 -120 -151 -20
-11 -36 -22 -36 -26 0 -4 38 -23 84 -44 79 -35 85 -36 112 -22 40 21 102 85
124 127 34 67 40 135 40 430 l0 290 -92 0 -93 0 -1 -273z"/>
</g>
</svg>
