<?xml version="1.0" standalone="no"?>
<!DOCTYPE svg PUBLIC "-//W3C//DTD SVG 20010904//EN"
 "http://www.w3.org/TR/2001/REC-SVG-20010904/DTD/svg10.dtd">
<svg version="1.0" xmlns="http://www.w3.org/2000/svg"
 width="512.000000pt" height="512.000000pt" viewBox="0 0 512.000000 512.000000"
 preserveAspectRatio="xMidYMid meet">

<g transform="translate(0.000000,512.000000) scale(0.100000,-0.100000)"
fill="#000000" stroke="none">
<path d="M2285 5093 c-217 -18 -432 -56 -555 -98 -206 -70 -306 -167 -350
-340 -18 -70 -20 -111 -20 -387 l0 -308 600 0 600 0 0 -75 0 -75 -856 0 c-568
0 -879 -4 -926 -11 -282 -44 -507 -232 -602 -504 -86 -247 -132 -637 -107
-890 63 -607 231 -926 541 -1027 57 -18 96 -21 326 -26 l262 -4 5 333 c4 305
6 340 26 407 86 293 318 505 611 558 58 10 225 13 740 14 738 0 730 0 863 66
51 26 94 59 147 113 87 87 132 165 160 277 19 73 20 113 20 733 0 730 1 713
-68 845 -46 90 -153 198 -249 254 -134 79 -291 116 -593 142 -106 9 -481 11
-575 3z m-309 -382 c22 -10 56 -37 75 -60 83 -96 78 -222 -11 -311 -88 -88
-206 -94 -300 -13 -160 137 -65 403 145 403 28 0 68 -9 91 -19z"/>
<path d="M3920 3492 c0 -285 -2 -327 -20 -398 -55 -218 -199 -399 -400 -503
-152 -79 -100 -74 -910 -81 l-725 -6 -80 -27 c-197 -66 -357 -236 -410 -437
-12 -46 -15 -168 -15 -720 0 -718 0 -711 55 -820 34 -68 168 -202 247 -248
242 -142 663 -235 982 -217 479 27 889 187 1034 404 84 126 86 138 90 469 l3
292 -605 0 -606 0 0 75 0 75 918 0 c535 0 945 4 984 10 231 34 369 180 491
525 53 147 74 227 97 361 48 278 13 680 -89 1024 -75 253 -182 405 -340 485
-92 46 -161 55 -443 55 l-258 0 0 -318z m-592 -2618 c118 -49 174 -188 121
-304 -41 -90 -108 -134 -204 -134 -136 0 -232 103 -223 240 10 156 166 257
306 198z"/>
</g>
</svg>
